<?xml version="1.0" encoding="UTF-8"?>
<svg viewBox="0 0 100 100" xmlns="http://www.w3.org/2000/svg">
  <!-- Server rack frame -->
  <rect x="25" y="15" width="50" height="65" rx="3" 
        fill="none" stroke="currentColor" stroke-width="2"/>
  <!-- Server units -->
  <rect x="30" y="20" width="40" height="8" rx="1" fill="currentColor" opacity="0.1" stroke="currentColor" stroke-width="1"/>
  <rect x="30" y="33" width="40" height="8" rx="1" fill="currentColor" opacity="0.1" stroke="currentColor" stroke-width="1"/>
  <rect x="30" y="46" width="40" height="8" rx="1" fill="currentColor" opacity="0.1" stroke="currentColor" stroke-width="1"/>
  <rect x="30" y="59" width="40" height="8" rx="1" fill="currentColor" opacity="0.1" stroke="currentColor" stroke-width="1"/>
  <!-- Status lights -->
  <circle cx="35" cy="24" r="1.5" fill="#22c55e"/>
  <circle cx="39" cy="24" r="1.5" fill="#22c55e"/>
  <circle cx="35" cy="37" r="1.5" fill="#22c55e"/>
  <circle cx="39" cy="37" r="1.5" fill="#eab308"/>
  <circle cx="35" cy="50" r="1.5" fill="#eab308"/>
  <circle cx="39" cy="50" r="1.5" fill="#22c55e"/>
  <circle cx="35" cy="63" r="1.5" fill="#22c55e"/>
  <circle cx="39" cy="63" r="1.5" fill="#22c55e"/>
  <!-- Network connections -->
  <line x1="50" y1="80" x2="50" y2="85" stroke="currentColor" stroke-width="2"/>
  <line x1="40" y1="85" x2="60" y2="85" stroke="currentColor" stroke-width="2"/>
  <line x1="45" y1="85" x2="45" y2="90" stroke="currentColor" stroke-width="1.5"/>
  <line x1="55" y1="85" x2="55" y2="90" stroke="currentColor" stroke-width="1.5"/>
  <!-- Ventilation slots -->
  <line x1="60" y1="22" x2="66" y2="22" stroke="currentColor" stroke-width="1"/>
  <line x1="60" y1="26" x2="66" y2="26" stroke="currentColor" stroke-width="1"/>
  <line x1="60" y1="35" x2="66" y2="35" stroke="currentColor" stroke-width="1"/>
  <line x1="60" y1="39" x2="66" y2="39" stroke="currentColor" stroke-width="1"/>
</svg>